<svg width="204" height="204" viewBox="0 0 204 204" fill="none" xmlns="http://www.w3.org/2000/svg">
<g filter="url(#filter0_d_36532_893)">
<path d="M10 66C10 35.0721 35.0721 10 66 10H134C164.928 10 190 35.0744 190 66.0023C190 78.8645 190 91.3008 190 100C190 108.699 190 121.135 190 133.998C190 164.926 164.928 190 134 190H66C35.0721 190 10 164.928 10 134V100V66Z" fill="url(#paint0_linear_36532_893)"/>
</g>
<path d="M55 76.0817C55 71.6183 58.6183 68 63.0817 68H124.502C128.966 68 132.584 71.6183 132.584 76.0817V111.641C132.584 116.105 128.966 119.723 124.502 119.723H63.0817C58.6183 119.723 55 116.105 55 111.641V76.0817ZM74.396 77.698V74.4653H67.9307V77.698C67.9307 79.4833 66.4833 80.9307 64.698 80.9307H61.4653V87.396H64.698C70.0541 87.396 74.396 83.0541 74.396 77.698ZM106.723 93.8613C106.723 86.7199 100.933 80.9307 93.792 80.9307C86.6506 80.9307 80.8613 86.7199 80.8613 93.8613C80.8613 101.003 86.6506 106.792 93.792 106.792C100.933 106.792 106.723 101.003 106.723 93.8613ZM119.653 74.4653H113.188V77.698C113.188 83.0541 117.53 87.396 122.886 87.396H126.119V80.9307H122.886C121.101 80.9307 119.653 79.4833 119.653 77.698V74.4653ZM74.396 110.025C74.396 104.669 70.0541 100.327 64.698 100.327H61.4653V106.792H64.698C66.4833 106.792 67.9307 108.239 67.9307 110.025V113.257H74.396V110.025ZM119.653 113.257V110.025C119.653 108.239 121.101 106.792 122.886 106.792H126.119V100.327H122.886C117.53 100.327 113.188 104.669 113.188 110.025V113.257H119.653Z" fill="white"/>
<path d="M77.6284 132.653C73.3186 132.653 69.6654 129.842 68.4026 125.953C69.2997 126.108 70.2219 126.188 71.163 126.188H124.502C132.536 126.188 139.049 119.675 139.049 111.641V81.4825C142.816 82.8139 145.514 86.4062 145.514 90.6287V111.641C145.514 123.246 136.107 132.653 124.502 132.653H77.6284Z" fill="white"/>
<defs>
<filter id="filter0_d_36532_893" x="0" y="0" width="204" height="204" filterUnits="userSpaceOnUse" color-interpolation-filters="sRGB">
<feFlood flood-opacity="0" result="BackgroundImageFix"/>
<feColorMatrix in="SourceAlpha" type="matrix" values="0 0 0 0 0 0 0 0 0 0 0 0 0 0 0 0 0 0 127 0" result="hardAlpha"/>
<feOffset dx="2" dy="2"/>
<feGaussianBlur stdDeviation="6"/>
<feComposite in2="hardAlpha" operator="out"/>
<feColorMatrix type="matrix" values="0 0 0 0 1 0 0 0 0 0.47451 0 0 0 0 0.654902 0 0 0 1 0"/>
<feBlend mode="normal" in2="BackgroundImageFix" result="effect1_dropShadow_36532_893"/>
<feBlend mode="normal" in="SourceGraphic" in2="effect1_dropShadow_36532_893" result="shape"/>
</filter>
<linearGradient id="paint0_linear_36532_893" x1="10" y1="10" x2="190" y2="190" gradientUnits="userSpaceOnUse">
<stop stop-color="#FF79A7"/>
<stop offset="1" stop-color="#FF94B9"/>
</linearGradient>
</defs>
</svg>
