<svg width="204" height="204" viewBox="0 0 204 204" fill="none" xmlns="http://www.w3.org/2000/svg">
<g filter="url(#filter0_d_36532_908)">
<path d="M10 66C10 35.0721 35.0721 10 66 10H134C164.928 10 190 35.0744 190 66.0023C190 78.8645 190 91.3008 190 100C190 108.699 190 121.135 190 133.998C190 164.926 164.928 190 134 190H66C35.0721 190 10 164.928 10 134V100V66Z" fill="url(#paint0_linear_36532_908)"/>
</g>
<path d="M60 66.6667C60 62.9848 62.9848 60 66.6667 60H133.333C137.015 60 140 62.9848 140 66.6667V73.3333C140 77.0152 137.015 80 133.333 80H66.6667C62.9848 80 60 77.0152 60 73.3333V66.6667Z" fill="white"/>
<path d="M66.6667 86.6667V126.667C66.6667 134.031 72.6363 140 80.0001 140H120C127.364 140 133.333 134.031 133.333 126.667V86.6667H66.6667ZM93.3334 93.3334H106.667C108.508 93.3334 110 94.8258 110 96.6667C110 98.5076 108.508 100 106.667 100H93.3334C91.4925 100 90.0001 98.5076 90.0001 96.6667C90.0001 94.8258 91.4925 93.3334 93.3334 93.3334Z" fill="white"/>
<defs>
<filter id="filter0_d_36532_908" x="0" y="0" width="204" height="204" filterUnits="userSpaceOnUse" color-interpolation-filters="sRGB">
<feFlood flood-opacity="0" result="BackgroundImageFix"/>
<feColorMatrix in="SourceAlpha" type="matrix" values="0 0 0 0 0 0 0 0 0 0 0 0 0 0 0 0 0 0 127 0" result="hardAlpha"/>
<feOffset dx="2" dy="2"/>
<feGaussianBlur stdDeviation="6"/>
<feComposite in2="hardAlpha" operator="out"/>
<feColorMatrix type="matrix" values="0 0 0 0 0.976471 0 0 0 0 0.411765 0 0 0 0 0.427451 0 0 0 0.5 0"/>
<feBlend mode="normal" in2="BackgroundImageFix" result="effect1_dropShadow_36532_908"/>
<feBlend mode="normal" in="SourceGraphic" in2="effect1_dropShadow_36532_908" result="shape"/>
</filter>
<linearGradient id="paint0_linear_36532_908" x1="10" y1="10" x2="190" y2="190" gradientUnits="userSpaceOnUse">
<stop stop-color="#F9696D"/>
<stop offset="1" stop-color="#FA878A"/>
</linearGradient>
</defs>
</svg>
